# xmcd
#
# Track frame offsets:
#	225
#	19888
#	45232
#	66625
#	89201
#	107045
#	128673
#	149287
#	174187
#	195164
#
# Disc length: 2910 seconds
#
# Revision: 1
# Processed by: cddbd v1.5.1PL0 Copyright (c) Steve Scherf et al.
# Submitted via: audiograbber 1.83.01
#
DISCID=860b5b0a
DTITLE=Alfredo Escudero - El Rey De La Cumbia
DYEAR=1900
DGENRE=Folklore
TTITLE0=Si Tu Supieras
TTITLE1=Tu Desprecio
TTITLE2=Amor Prohibido
TTITLE3=Vuelvo A Llano De Piedra
TTITLE4=La Coquetona
TTITLE5=No Puedo Amarte
TTITLE6=Cuando Existe Amor
TTITLE7=Zeyra Castro
TTITLE8=Milagrosa Santa Librada
TTITLE9=Me Hace Falta Un Amor
EXTD=
EXTT0=
EXTT1=
EXTT2=
EXTT3=
EXTT4=
EXTT5=
EXTT6=
EXTT7=
EXTT8=
EXTT9=
PLAYORDER=
